# xmcd
#
# Track frame offsets: 
#        150
#        64839
#        154603
#        189529
#        209518
#        253559
#        311954
#
# Disc length: 4478 seconds
#
# Revision: 0
# Processed by: cddbd v1.5.2PL0 Copyright (c) Steve Scherf et al.
# Submitted via: ExactAudioCopy v1.1
#
DISCID=63117c07
DTITLE=Larry Carlton and Steve Lukather - At Blue Note Tokyo
DYEAR=2016
DGENRE=Fusion
TTITLE0=The Pump
TTITLE1=Tutu
TTITLE2=Lilies Of The Nile
TTITLE3=Crossroads
TTITLE4=Only Yesterday
TTITLE5=Ben E Wah
TTITLE6=While My Guitar Gently Weeps
EXTD=
EXTT0=
EXTT1=
EXTT2=
EXTT3=
EXTT4=
EXTT5=
EXTT6=
PLAYORDER=
